<svg width="48" height="44" viewBox="0 0 48 44" fill="none" xmlns="http://www.w3.org/2000/svg">
<path d="M36.3854 26.7438C35.6376 24.033 34.0211 21.6424 31.7838 19.9388C29.5466 18.2351 26.8122 17.3125 24.0001 17.3125C21.1881 17.3125 18.4537 18.2351 16.2164 19.9388C13.9792 21.6424 12.3627 24.033 11.6149 26.7438L9.83283 33.2038C9.51287 34.3637 9.46513 35.5818 9.69334 36.7631C9.92155 37.9445 10.4195 39.0572 11.1485 40.0144C11.8774 40.9717 12.8176 41.7476 13.8957 42.2818C14.9738 42.8159 16.1608 43.0938 17.364 43.0938H30.6362C31.8394 43.0938 33.0264 42.8159 34.1045 42.2818C35.1826 41.7476 36.1228 40.9717 36.8518 40.0144C37.5807 39.0572 38.0787 37.9445 38.3069 36.7631C38.5351 35.5818 38.4874 34.3637 38.1674 33.2038L36.3854 26.7438ZM34.3656 38.1208C33.9302 38.6972 33.3665 39.1644 32.7191 39.4851C32.0718 39.8059 31.3587 39.9715 30.6362 39.9688H17.364C16.6421 39.9688 15.9299 39.8021 15.283 39.4816C14.6361 39.1611 14.072 38.6955 13.6346 38.1212C13.1972 37.5468 12.8984 36.8792 12.7615 36.1704C12.6246 35.4616 12.6532 34.7307 12.8452 34.0348L14.6273 27.5749C15.1932 25.5234 16.4165 23.7143 18.1096 22.425C19.8027 21.1357 21.872 20.4376 24.0001 20.4376C26.1282 20.4376 28.1975 21.1357 29.8906 22.425C31.5837 23.7143 32.807 25.5234 33.373 27.5749L35.155 34.0348C35.3498 34.7304 35.3798 35.4619 35.2428 36.1712C35.1058 36.8805 34.8055 37.5481 34.3656 38.1212V38.1208ZM13.2677 19.4913C13.5396 17.7921 13.179 15.973 12.2521 14.368C11.3251 12.7629 9.9298 11.5411 8.32267 10.9269C6.60158 10.2696 4.84611 10.3743 3.37794 11.2216C0.459291 12.9067 -0.308775 17.0599 1.66613 20.4799C2.59279 22.0849 3.9882 23.307 5.59533 23.9209C6.30725 24.1983 7.06398 24.343 7.82804 24.3477C8.77994 24.3512 9.71573 24.1022 10.5401 23.6262C12.0073 22.7788 12.9761 21.3103 13.2677 19.4913ZM10.1818 18.9973C10.0421 19.8693 9.61437 20.552 8.97736 20.9198C8.34035 21.2876 7.53527 21.3165 6.71007 21.0015C5.7713 20.6431 4.94103 19.9028 4.37208 18.9174C3.27833 17.0228 3.53829 14.7377 4.94044 13.9279C5.29292 13.7279 5.69212 13.6248 6.09738 13.6293C6.47753 13.6332 6.85376 13.7066 7.20753 13.8458C8.1463 14.2045 8.97658 14.9446 9.54552 15.9301C10.1145 16.9155 10.3403 18.0051 10.1818 18.9973ZM13.6062 13.0174C14.7157 13.9044 15.9828 14.3663 17.2642 14.3662C17.648 14.3661 18.0307 14.3248 18.4057 14.2431C21.6989 13.5271 23.6957 9.80526 22.8568 5.94637C22.4633 4.13524 21.5065 2.54628 20.1627 1.47196C18.7237 0.321569 17.0193 -0.11388 15.3632 0.246276C12.07 0.962096 10.0733 4.68397 10.912 8.54286C11.3057 10.3541 12.2625 11.9431 13.6062 13.0174ZM16.0269 3.29999C16.1787 3.26725 16.3336 3.25088 16.489 3.25116C17.0698 3.25116 17.6673 3.4784 18.2113 3.91337C18.9962 4.54081 19.5615 5.49872 19.8031 6.61073C20.268 8.74891 19.324 10.8459 17.7419 11.1898C17.0231 11.3461 16.2473 11.1285 15.5576 10.577C14.7728 9.9495 14.2074 8.99159 13.9658 7.87967C13.5009 5.7409 14.4448 3.64393 16.0269 3.29999ZM44.6223 11.2216C43.1547 10.3743 41.3984 10.2696 39.6776 10.9269C38.0704 11.5409 36.675 12.7629 35.7484 14.368C34.8217 15.973 34.461 17.7925 34.7327 19.4913C35.0239 21.3103 35.9925 22.7788 37.4604 23.6262C38.2847 24.1022 39.2205 24.3512 40.1724 24.3477C40.9364 24.343 41.6932 24.1983 42.4051 23.9209C44.0122 23.307 45.4076 22.0849 46.3343 20.4799C48.309 17.0599 47.5409 12.9067 44.6223 11.2216ZM43.6281 18.9174C43.0592 19.9028 42.2289 20.6431 41.2901 21.0015C40.4653 21.3168 39.6601 21.2878 39.0231 20.9198C38.386 20.5518 37.9586 19.8693 37.8187 18.9973C37.6599 18.0051 37.8857 16.9159 38.4547 15.9309C39.0237 14.946 39.8539 14.2054 40.7927 13.8467C41.1464 13.7073 41.5227 13.6338 41.9028 13.6298C42.3081 13.6253 42.7073 13.7284 43.0598 13.9284C44.4619 14.7375 44.7222 17.0223 43.6281 18.9174ZM29.5945 14.2431C29.9695 14.3248 30.3522 14.3661 30.7361 14.3662C32.0173 14.3662 33.2849 13.9044 34.3941 13.0174C35.7377 11.9432 36.6945 10.3541 37.0882 8.54296C37.927 4.68407 35.9302 0.962194 32.637 0.246373C30.9811 -0.113587 29.2765 0.321569 27.8375 1.47206C26.4938 2.54628 25.5369 4.13534 25.1434 5.94637C24.3045 9.80526 26.3013 13.5271 29.5945 14.2431ZM28.1971 6.61024C28.4387 5.49823 29.004 4.53993 29.7889 3.91288C30.333 3.47792 30.9304 3.25067 31.5112 3.25067C31.6666 3.25039 31.8215 3.26676 31.9734 3.2995C33.5554 3.64344 34.4993 5.74091 34.0346 7.8786C33.7928 8.99061 33.2275 9.94891 32.4428 10.5761C31.7532 11.1274 30.9779 11.345 30.2585 11.1889C28.6762 10.8454 27.7322 8.74813 28.1971 6.61024Z" fill="#4E77F4"/>
</svg>
