<svg width="45" height="42" viewBox="0 0 45 42" fill="none" xmlns="http://www.w3.org/2000/svg">
<path d="M44.9163 4.5415V0.791504L41.1663 0.374837C40.958 0.374837 39.708 0.166504 37.6247 0.166504C29.083 0.166504 22.833 2.6665 19.2913 7.0415C16.583 5.37484 12.833 4.33317 8.45801 4.33317C6.37467 4.33317 4.91634 4.5415 4.91634 4.5415L0.958008 5.1665L1.16634 8.70817C1.37467 14.9582 4.49967 26.8332 15.333 26.8332H15.7497V33.9165C7.83301 34.9582 1.16634 37.6665 1.16634 37.6665V41.8332H42.833V37.6665C42.833 37.6665 36.1663 34.9582 28.2497 33.9165V27.2498C41.3747 27.0415 44.9163 12.2498 44.9163 4.5415ZM21.9997 33.4998H19.9163V21.8332C19.9163 21.8332 19.4997 14.7498 13.6663 14.7498C13.6663 14.7498 16.7913 16.4165 17.6247 22.4582C16.7913 22.6665 15.958 22.6665 15.333 22.6665C5.74967 22.6665 5.33301 8.70817 5.33301 8.70817C5.33301 8.70817 6.58301 8.49984 8.45801 8.49984C12.4163 8.49984 18.8747 9.33317 20.7497 14.9582C21.7913 5.58317 32.4163 4.33317 37.6247 4.33317C39.4997 4.33317 40.7497 4.5415 40.7497 4.5415C40.7497 4.5415 40.7497 23.2915 27.6247 23.2915H26.1663C26.1663 19.1248 30.333 12.8748 30.333 12.8748C24.083 14.9582 24.083 23.0832 24.083 23.0832V33.4998H21.9997Z" fill="#4E77F4"/>
</svg>
