<svg width="36" height="36" viewBox="0 0 36 36" fill="none" xmlns="http://www.w3.org/2000/svg">
<g clip-path="url(#clip0_147_18)">
<path d="M16.1698 25.8601L10.8098 20.5001C10.646 20.3088 10.5604 20.0627 10.5701 19.811C10.5798 19.5594 10.6841 19.3206 10.8622 19.1425C11.0403 18.9644 11.2791 18.8601 11.5307 18.8504C11.7824 18.8407 12.0285 18.9263 12.2198 19.0901L16.1698 23.0001L24.8098 14.3601C25.0011 14.1963 25.2472 14.1107 25.4988 14.1204C25.7505 14.1301 25.9893 14.2344 26.1674 14.4125C26.3455 14.5906 26.4498 14.8294 26.4595 15.081C26.4692 15.3327 26.3836 15.5788 26.2198 15.7701L16.1698 25.8601Z" fill="#4E77F4"/>
<path d="M32.2503 6H29.0003V8H32.0003V30H4.00026V8H7.00026V6H3.75026C3.51649 6.00391 3.28579 6.05383 3.07132 6.14691C2.85686 6.23999 2.66283 6.37441 2.50032 6.54249C2.33781 6.71057 2.21 6.90902 2.1242 7.1265C2.0384 7.34398 1.99628 7.57624 2.00026 7.81V30.19C1.99628 30.4238 2.0384 30.656 2.1242 30.8735C2.21 31.091 2.33781 31.2894 2.50032 31.4575C2.66283 31.6256 2.85686 31.76 3.07132 31.8531C3.28579 31.9462 3.51649 31.9961 3.75026 32H32.2503C32.484 31.9961 32.7147 31.9462 32.9292 31.8531C33.1437 31.76 33.3377 31.6256 33.5002 31.4575C33.6627 31.2894 33.7905 31.091 33.8763 30.8735C33.9621 30.656 34.0042 30.4238 34.0003 30.19V7.81C34.0042 7.57624 33.9621 7.34398 33.8763 7.1265C33.7905 6.90902 33.6627 6.71057 33.5002 6.54249C33.3377 6.37441 33.1437 6.23999 32.9292 6.14691C32.7147 6.05383 32.484 6.00391 32.2503 6Z" fill="#4E77F4"/>
<path d="M10 10C10.2652 10 10.5196 9.89464 10.7071 9.70711C10.8946 9.51957 11 9.26522 11 9V3C11 2.73478 10.8946 2.48043 10.7071 2.29289C10.5196 2.10536 10.2652 2 10 2C9.73478 2 9.48043 2.10536 9.29289 2.29289C9.10536 2.48043 9 2.73478 9 3V9C9 9.26522 9.10536 9.51957 9.29289 9.70711C9.48043 9.89464 9.73478 10 10 10Z" fill="#4E77F4"/>
<path d="M26 10C26.2652 10 26.5196 9.89464 26.7071 9.70711C26.8946 9.51957 27 9.26522 27 9V3C27 2.73478 26.8946 2.48043 26.7071 2.29289C26.5196 2.10536 26.2652 2 26 2C25.7348 2 25.4804 2.10536 25.2929 2.29289C25.1054 2.48043 25 2.73478 25 3V9C25 9.26522 25.1054 9.51957 25.2929 9.70711C25.4804 9.89464 25.7348 10 26 10Z" fill="#4E77F4"/>
<path d="M13 6H23V8H13V6Z" fill="#4E77F4"/>
</g>
<defs>
<clipPath id="clip0_147_18">
<rect width="36" height="36" fill="white"/>
</clipPath>
</defs>
</svg>
