<svg width="100" height="100" viewBox="0 0 100 100" fill="none" xmlns="http://www.w3.org/2000/svg">
<path d="M89.5 55.7225C88.43 54.8984 87.184 54.3328 85.8592 54.0699C84.5345 53.807 83.1669 53.8539 81.8633 54.2069L80.1758 54.5975C88.6719 46.6991 92.9688 38.871 92.9688 31.2499C92.9688 21.3436 85.0039 13.2811 75.2109 13.2811C72.4491 13.2638 69.7212 13.8902 67.2437 15.1107C64.7661 16.3312 62.607 18.1122 60.9375 20.3124C59.268 18.1122 57.1089 16.3312 54.6313 15.1107C52.1538 13.8902 49.4259 13.2638 46.6641 13.2811C36.8711 13.2811 28.9062 21.3436 28.9062 31.2499C28.9062 35.6952 30.3242 40.035 33.3164 44.6717C30.8637 45.05 28.5967 46.2041 26.8477 47.9647L17.7813 57.0311H6.25C4.7996 57.0311 3.4086 57.6073 2.38301 58.6329C1.35742 59.6585 0.78125 61.0495 0.78125 62.4999V78.1249C0.78125 79.5753 1.35742 80.9663 2.38301 81.9919C3.4086 83.0174 4.7996 83.5936 6.25 83.5936H46.875C47.0673 83.5937 47.2588 83.57 47.4453 83.5233L72.4453 77.2733C72.5636 77.2419 72.6798 77.2027 72.793 77.1561L87.957 70.703L88.0859 70.6444C89.4267 69.9748 90.5749 68.975 91.4225 67.739C92.27 66.503 92.789 65.0716 92.9304 63.5797C93.0719 62.0877 92.8312 60.5843 92.2311 59.211C91.6309 57.8378 90.691 56.6399 89.5 55.7303V55.7225ZM46.6641 17.9686C49.2417 17.9342 51.7709 18.6697 53.9281 20.0809C56.0853 21.4922 57.7724 23.515 58.7734 25.8905C58.95 26.3204 59.2504 26.688 59.6364 26.9468C60.0224 27.2055 60.4767 27.3437 60.9414 27.3437C61.4061 27.3437 61.8604 27.2055 62.2464 26.9468C62.6324 26.688 62.9328 26.3204 63.1094 25.8905C64.1104 23.515 65.7975 21.4922 67.9547 20.0809C70.1119 18.6697 72.6412 17.9342 75.2187 17.9686C82.2969 17.9686 88.2812 24.0506 88.2812 31.2499C88.2812 39.1561 81.9609 48.0467 70 56.9335L64.1914 58.2694C64.7707 56.7324 64.9686 55.0779 64.7681 53.4476C64.5676 51.8174 63.9747 50.2601 63.0402 48.9093C62.1058 47.5585 60.8576 46.4545 59.4028 45.6919C57.9481 44.9294 56.33 44.5311 54.6875 44.5311H38.9336C35.2969 39.7147 33.5938 35.4725 33.5938 31.2499C33.5938 24.0506 39.5781 17.9686 46.6641 17.9686ZM5.46875 78.1249V62.4999C5.46875 62.2927 5.55106 62.0939 5.69757 61.9474C5.84409 61.8009 6.0428 61.7186 6.25 61.7186H16.4062V78.9061H6.25C6.0428 78.9061 5.84409 78.8238 5.69757 78.6773C5.55106 78.5308 5.46875 78.3321 5.46875 78.1249ZM86.0469 66.4061L71.125 72.7616L46.5859 78.9061H21.0938V60.3475L30.1602 51.2772C30.8117 50.6223 31.5867 50.1031 32.4402 49.7497C33.2938 49.3963 34.209 49.2158 35.1328 49.2186H54.6875C56.1379 49.2186 57.5289 49.7948 58.5545 50.8204C59.5801 51.846 60.1562 53.237 60.1562 54.6874C60.1562 56.1378 59.5801 57.5288 58.5545 58.5543C57.5289 59.5799 56.1379 60.1561 54.6875 60.1561H43.75C43.1284 60.1561 42.5323 60.403 42.0927 60.8426C41.6532 61.2821 41.4062 61.8783 41.4062 62.4999C41.4062 63.1215 41.6532 63.7176 42.0927 64.1571C42.5323 64.5967 43.1284 64.8436 43.75 64.8436H56.25C56.4261 64.8438 56.6017 64.8242 56.7734 64.785L82.9453 58.7655L83.0391 58.742C84.0241 58.4735 85.0737 58.5784 85.9861 59.0365C86.8986 59.4946 87.6096 60.2738 87.9826 61.2242C88.3556 62.1746 88.3643 63.2294 88.007 64.1858C87.6497 65.1423 86.9516 65.933 86.0469 66.4061Z" fill="#4E77F4"/>
</svg>
