<svg width="30" height="42" viewBox="0 0 30 42" fill="none" xmlns="http://www.w3.org/2000/svg">
<path fill-rule="evenodd" clip-rule="evenodd" d="M8.22852 5.37484C8.22852 3.9935 8.77725 2.66874 9.754 1.69199C10.7308 0.715237 12.0555 0.166504 13.4368 0.166504C14.8182 0.166504 16.1429 0.715237 17.1197 1.69199C18.0964 2.66874 18.6452 3.9935 18.6452 5.37484C18.6452 6.75617 18.0964 8.08093 17.1197 9.05768C16.1429 10.0344 14.8182 10.5832 13.4368 10.5832C12.0555 10.5832 10.7308 10.0344 9.754 9.05768C8.77725 8.08093 8.22852 6.75617 8.22852 5.37484ZM13.4368 2.24984C12.608 2.24984 11.8132 2.57908 11.2271 3.16513C10.6411 3.75118 10.3118 4.54604 10.3118 5.37484C10.3118 6.20364 10.6411 6.99849 11.2271 7.58455C11.8132 8.1706 12.608 8.49984 13.4368 8.49984C14.2657 8.49984 15.0605 8.1706 15.6466 7.58455C16.2326 6.99849 16.5618 6.20364 16.5618 5.37484C16.5618 4.54604 16.2326 3.75118 15.6466 3.16513C15.0605 2.57908 14.2657 2.24984 13.4368 2.24984Z" fill="#4E77F4"/>
<path d="M8.92196 16.2705L8.7428 17.4924C8.57092 18.6643 8.23967 20.2059 7.84176 21.8528L7.51676 23.1997L6.31363 22.5143C6.03395 22.3561 5.77766 22.1598 5.55217 21.9309C4.90113 21.2653 4.57092 20.3674 4.57926 19.4476C4.58291 18.5135 4.94887 17.6173 5.60009 16.9476C5.94696 16.5945 6.40634 16.4622 6.70425 16.3997C7.03759 16.3299 7.38967 16.307 7.68655 16.2997L8.92196 16.2705Z" fill="#4E77F4"/>
<path fill-rule="evenodd" clip-rule="evenodd" d="M2.63725 14.0208C4.14558 12.4906 6.26225 11.625 8.72266 11.625H16.0529C21.3091 11.625 24.6029 13.5344 26.5008 15.9354C27.5383 17.2469 28.3487 18.9292 28.5268 20.6958V20.7042L28.5289 20.7229V20.7333L28.53 20.7354V20.7417L28.5331 20.7729V20.776C28.5789 21.4115 28.432 22.0156 28.1404 22.5333C28.5827 22.8157 28.9468 23.205 29.199 23.6652C29.4511 24.1255 29.5832 24.6419 29.5831 25.1667V40.7917C29.5831 41.0679 29.4733 41.3329 29.278 41.5282C29.0826 41.7236 28.8177 41.8333 28.5414 41.8333C28.2651 41.8333 28.0002 41.7236 27.8048 41.5282C27.6095 41.3329 27.4997 41.0679 27.4997 40.7917V25.1667C27.4997 24.8904 27.39 24.6254 27.1946 24.4301C26.9993 24.2347 26.7343 24.125 26.4581 24.125C26.1818 24.125 25.9169 24.2347 25.7215 24.4301C25.5262 24.6254 25.4164 24.8904 25.4164 25.1667V25.524C25.4164 25.8002 25.3067 26.0652 25.1113 26.2605C24.916 26.4559 24.651 26.5656 24.3747 26.5656C24.0985 26.5656 23.8335 26.4559 23.6382 26.2605C23.4428 26.0652 23.3331 25.8002 23.3331 25.524V25.1667C23.3331 24.6125 23.4768 24.0927 23.73 23.6417C23.5168 23.4894 23.3267 23.3073 23.1654 23.101C22.7081 22.524 22.4758 21.7802 22.3143 21.2604L22.2914 21.1906L22.2227 20.974C22.087 20.5536 21.8771 20.1609 21.6029 19.8146C21.2487 19.3667 20.606 18.7615 19.382 18.3458C20.1841 22.3167 22.1654 29.3156 22.9643 32.0844C23.0464 32.3684 23.0668 32.6668 23.0243 32.9594C22.9818 33.252 22.8772 33.5321 22.7176 33.781C22.5581 34.03 22.3471 34.2419 22.099 34.4027C21.8509 34.5636 21.5713 34.6695 21.2789 34.7135C14.9497 35.676 10.8925 35.7094 4.55079 34.7198C4.25793 34.6743 3.97821 34.5666 3.73043 34.4041C3.48264 34.2415 3.27255 34.0277 3.11426 33.7771C2.95597 33.5266 2.85317 33.245 2.81275 32.9514C2.77234 32.6579 2.79525 32.359 2.87995 32.075C3.25183 30.8219 3.88412 28.6583 4.53412 26.2885C3.80969 25.9157 3.1496 25.4294 2.57891 24.8479C1.09037 23.3281 0.397662 21.3375 0.41537 19.4073C0.429227 17.3915 1.22549 15.4598 2.6362 14.0198M26.4487 20.874L26.4508 20.9469V20.9813C26.4518 21.0025 26.4535 21.0237 26.456 21.0448C26.445 21.2977 26.3423 21.5379 26.1671 21.7206C25.9919 21.9033 25.7561 22.016 25.5039 22.0375C25.2435 22.0583 25.0997 22.0219 25.0206 21.9885C24.9317 21.9491 24.8548 21.887 24.7977 21.8083C24.606 21.5656 24.4737 21.1875 24.28 20.5667L24.207 20.3396C23.9954 19.6801 23.6669 19.064 23.2372 18.5208C22.4331 17.5042 20.9664 16.349 18.2362 15.9427L16.8581 15.7375L17.0508 17.1167C17.5466 20.6615 20.0654 29.5521 20.9602 32.6542C14.8352 33.5854 10.9935 33.6156 4.87891 32.6604C5.2987 31.2479 6.04558 28.6885 6.77995 25.9719L7.02683 25.0573L6.14037 24.724C5.3596 24.4367 4.65181 23.9807 4.06745 23.3885C2.9987 22.2979 2.4862 20.8542 2.49975 19.4271C2.50823 17.9518 3.08937 16.5374 4.12058 15.4823C5.20079 14.3885 6.76641 13.7083 8.72266 13.7083H16.0529C20.7529 13.7083 23.4112 15.3865 24.8675 17.2281C25.707 18.2906 26.3154 19.5958 26.4508 20.874" fill="#4E77F4"/>
<path d="M8.54264 41.7021C8.16782 41.6517 7.824 41.467 7.57498 41.1823C7.32595 40.8977 7.18863 40.5324 7.18848 40.1542V36.6396C8.60931 36.851 9.92806 36.9865 11.2166 37.049L10.2583 40.5646C10.1587 40.9299 9.9298 41.2466 9.61424 41.4558C9.29868 41.665 8.91789 41.7525 8.54264 41.7021ZM15.576 40.5646L14.6145 37.0417C15.9641 36.9667 17.3094 36.8276 18.6458 36.625V40.1542C18.6464 40.5332 18.5093 40.8995 18.2599 41.1849C18.0105 41.4702 17.6659 41.6553 17.2903 41.7055C16.9146 41.7557 16.5335 41.6676 16.2179 41.4578C15.9024 41.2479 15.6749 40.9304 15.576 40.5646Z" fill="#4E77F4"/>
</svg>
