<svg width="40" height="40" viewBox="0 0 40 40" fill="none" xmlns="http://www.w3.org/2000/svg">
<path d="M20 0C14.6957 0 9.60859 2.10714 5.85786 5.85786C2.10714 9.60859 0 14.6957 0 20C0 25.3043 2.10714 30.3914 5.85786 34.1421C9.60859 37.8929 14.6957 40 20 40C25.3043 40 30.3914 37.8929 34.1421 34.1421C37.8929 30.3914 40 25.3043 40 20C40 14.6957 37.8929 9.60859 34.1421 5.85786C30.3914 2.10714 25.3043 0 20 0ZM15.84 2.9975C18.5748 2.32951 21.4302 2.32951 24.165 2.9975L20 5.425L15.84 2.9975ZM12.73 4.0775L18.755 7.59V11.84L11.8325 16.72L7.9325 15.3025L6.3675 9.0225C8.07613 6.90241 10.2543 5.21115 12.73 4.0775ZM4.5025 11.865L5.485 15.815L2.575 18.4C2.7875 16.0575 3.4575 13.85 4.5025 11.865ZM2.5875 21.73L7.155 17.68L11.02 19.0825L13.6325 27.3075L11.84 29.99H5.63C3.92375 27.5432 2.87519 24.6988 2.585 21.73M7.7425 32.49H11.6275L12.9025 36C10.9864 35.148 9.23876 33.9592 7.7425 32.49ZM15.9325 37.025L13.895 31.41L15.67 28.7525H24.3375L26.115 31.41L24.0775 37.0225C21.4001 37.6617 18.6099 37.6642 15.9325 37.025ZM27.11 35.9925L28.385 32.4875H32.2575C30.7645 33.9535 29.0212 35.1406 27.11 35.9925ZM34.37 29.9875H28.175L26.375 27.3L28.9375 19.0825L32.855 17.6725L37.415 21.7275C37.1248 24.6963 36.0762 27.5407 34.37 29.9875ZM37.4275 18.3925L34.5275 15.815L35.51 11.885C36.545 13.86 37.215 16.06 37.4275 18.3925ZM33.6425 9.0375L32.08 15.295L28.12 16.72L21.2525 11.84V7.59L27.275 4.075C29.755 5.21188 31.936 6.91096 33.645 9.0375M13.495 18.6125L20 14.0175L26.465 18.61L24.085 26.25H15.9175L13.495 18.6125Z" fill="#4E77F4"/>
</svg>
