<svg width="30" height="34" viewBox="0 0 30 34" fill="none" xmlns="http://www.w3.org/2000/svg">
<path d="M5.86491 33.6667C4.93435 33.6667 4.1406 33.3389 3.48366 32.6833C2.8281 32.0278 2.50033 31.234 2.50033 30.3021V4.5H0.416992V2.41667H8.75033V0.8125H21.2503V2.41667H29.5837V4.5H27.5003V30.3021C27.5003 31.2604 27.1795 32.0604 26.5378 32.7021C25.8962 33.3438 25.0955 33.6653 24.1357 33.6667H5.86491ZM25.417 4.5H4.58366V30.3021C4.58366 30.6757 4.7038 30.9826 4.94408 31.2229C5.18435 31.4632 5.4913 31.5833 5.86491 31.5833H24.1357C24.4552 31.5833 24.7489 31.45 25.017 31.1833C25.285 30.9167 25.4184 30.6229 25.417 30.3021V4.5ZM10.4337 27.4167H12.517V8.66667H10.4337V27.4167ZM17.4837 27.4167H19.567V8.66667H17.4837V27.4167Z" fill="white"/>
</svg>
