<svg width="25" height="25" viewBox="0 0 25 25" fill="none" xmlns="http://www.w3.org/2000/svg">
<path d="M3.66278 21.3373C2.4689 20.1842 1.51663 18.8049 0.861515 17.2799C0.206402 15.7548 -0.138426 14.1146 -0.152848 12.4548C-0.167271 10.7951 0.149 9.14907 0.777511 7.61287C1.40602 6.07666 2.33419 4.68102 3.50784 3.50736C4.6815 2.3337 6.07715 1.40553 7.61336 0.777023C9.14956 0.148512 10.7956 -0.167759 12.4553 -0.153337C14.115 -0.138914 15.7553 0.205914 17.2803 0.861026C18.8054 1.51614 20.1847 2.46842 21.3378 3.66229C23.6148 6.01982 24.8747 9.17735 24.8462 12.4548C24.8177 15.7323 23.5031 18.8674 21.1855 21.185C18.8679 23.5026 15.7328 24.8172 12.4553 24.8457C9.17784 24.8742 6.02031 23.6143 3.66278 21.3373ZM5.42528 19.5748C7.30169 21.4512 9.84664 22.5054 12.5003 22.5054C15.1539 22.5054 17.6989 21.4512 19.5753 19.5748C21.4517 17.6984 22.5058 15.1534 22.5058 12.4998C22.5058 9.84615 21.4517 7.3012 19.5753 5.42479C17.6989 3.54839 15.1539 2.49423 12.5003 2.49423C9.84664 2.49423 7.30169 3.54839 5.42528 5.42479C3.54888 7.3012 2.49472 9.84615 2.49472 12.4998C2.49472 15.1534 3.54888 17.6984 5.42528 19.5748ZM17.8003 8.96229L14.2628 12.4998L17.8003 16.0373L16.0378 17.7998L12.5003 14.2623L8.96278 17.7998L7.20028 16.0373L10.7378 12.4998L7.20028 8.96229L8.96278 7.19979L12.5003 10.7373L16.0378 7.19979L17.8003 8.96229Z" fill="#4E77F4"/>
</svg>
