<svg width="50" height="50" viewBox="0 0 50 50" fill="none" xmlns="http://www.w3.org/2000/svg">
<path d="M14.1825 0C14.6466 0 15.0917 0.184374 15.4199 0.512563C15.7481 0.840752 15.9325 1.28587 15.9325 1.75V5.0225H34.725V1.7725C34.725 1.30837 34.9094 0.863252 35.2376 0.535063C35.5658 0.206874 36.0109 0.0225 36.475 0.0225C36.9391 0.0225 37.3842 0.206874 37.7124 0.535063C38.0406 0.863252 38.225 1.30837 38.225 1.7725V5.0225H45C46.3256 5.0225 47.597 5.54894 48.5347 6.48608C49.4723 7.42322 49.9993 8.69435 50 10.02V45.0025C49.9993 46.3281 49.4723 47.5993 48.5347 48.5364C47.597 49.4736 46.3256 50 45 50H5C3.67435 50 2.40296 49.4736 1.46535 48.5364C0.52774 47.5993 0.000662825 46.3281 0 45.0025L0 10.02C0.000662825 8.69435 0.52774 7.42322 1.46535 6.48608C2.40296 5.54894 3.67435 5.0225 5 5.0225H12.4325V1.7475C12.4332 1.2838 12.6178 0.839327 12.9459 0.511679C13.2741 0.184031 13.7188 -4.73159e-07 14.1825 0ZM3.5 19.355V45.0025C3.5 45.1995 3.5388 45.3945 3.61418 45.5765C3.68956 45.7585 3.80005 45.9239 3.93934 46.0632C4.07863 46.2024 4.24399 46.3129 4.42597 46.3883C4.60796 46.4637 4.80302 46.5025 5 46.5025H45C45.197 46.5025 45.392 46.4637 45.574 46.3883C45.756 46.3129 45.9214 46.2024 46.0607 46.0632C46.2 45.9239 46.3104 45.7585 46.3858 45.5765C46.4612 45.3945 46.5 45.1995 46.5 45.0025V19.39L3.5 19.355ZM16.6675 36.5475V40.7125H12.5V36.5475H16.6675ZM27.0825 36.5475V40.7125H22.9175V36.5475H27.0825ZM37.5 36.5475V40.7125H33.3325V36.5475H37.5ZM16.6675 26.605V30.77H12.5V26.605H16.6675ZM27.0825 26.605V30.77H22.9175V26.605H27.0825ZM37.5 26.605V30.77H33.3325V26.605H37.5ZM12.4325 8.52H5C4.80302 8.52 4.60796 8.5588 4.42597 8.63418C4.24399 8.70956 4.07863 8.82005 3.93934 8.95934C3.80005 9.09863 3.68956 9.26399 3.61418 9.44597C3.5388 9.62796 3.5 9.82302 3.5 10.02V15.8575L46.5 15.8925V10.02C46.5 9.82302 46.4612 9.62796 46.3858 9.44597C46.3104 9.26399 46.2 9.09863 46.0607 8.95934C45.9214 8.82005 45.756 8.70956 45.574 8.63418C45.392 8.5588 45.197 8.52 45 8.52H38.225V10.8425C38.225 11.3066 38.0406 11.7517 37.7124 12.0799C37.3842 12.4081 36.9391 12.5925 36.475 12.5925C36.0109 12.5925 35.5658 12.4081 35.2376 12.0799C34.9094 11.7517 34.725 11.3066 34.725 10.8425V8.52H15.9325V10.82C15.9325 11.2841 15.7481 11.7292 15.4199 12.0574C15.0917 12.3856 14.6466 12.57 14.1825 12.57C13.7184 12.57 13.2733 12.3856 12.9451 12.0574C12.6169 11.7292 12.4325 11.2841 12.4325 10.82V8.52Z" fill="#878787"/>
</svg>
