<svg width="36" height="27" viewBox="0 0 36 27" fill="none" xmlns="http://www.w3.org/2000/svg">
<path d="M-nan -nanL33.6975 11.692C34.4937 12.6999 34.4937 14.0605 33.6975 15.0668C31.1895 18.2351 25.1725 24.7588 18.1476 24.7588C11.1227 24.7588 5.10562 18.2351 2.59768 15.0668C2.21029 14.5842 2 13.9905 2 13.3794C2 12.7683 2.21029 12.1746 2.59768 11.692C5.10562 8.52364 11.1227 2 18.1476 2C25.1725 2 31.1895 8.52364 33.6975 11.692L-nan -nanL-nan -nanZ" stroke="black" stroke-width="3" stroke-linecap="round" stroke-linejoin="round"/>
<path d="M18.1473 18.2562C20.9305 18.2562 23.1867 16.0728 23.1867 13.3793C23.1867 10.6859 20.9305 8.50244 18.1473 8.50244C15.3641 8.50244 13.1079 10.6859 13.1079 13.3793C13.1079 16.0728 15.3641 18.2562 18.1473 18.2562Z" stroke="black" stroke-width="3" stroke-linecap="round" stroke-linejoin="round"/>
</svg>
