<svg width="50" height="50" viewBox="0 0 50 50" fill="none" xmlns="http://www.w3.org/2000/svg">
<path d="M14.8438 25C18.727 25 21.875 21.852 21.875 17.9688C21.875 14.0855 18.727 10.9375 14.8438 10.9375C10.9605 10.9375 7.8125 14.0855 7.8125 17.9688C7.8125 21.852 10.9605 25 14.8438 25Z" fill="#4E77F4"/>
<path d="M22.8516 28.9062C20.1016 27.5098 17.0664 26.9531 14.8438 26.9531C10.4902 26.9531 1.5625 29.623 1.5625 34.9609V39.0625H16.2109V37.4932C16.2109 35.6377 16.9922 33.7773 18.3594 32.2266C19.4502 30.9883 20.9775 29.8389 22.8516 28.9062Z" fill="#4E77F4"/>
<path d="M33.2031 28.125C28.1182 28.125 17.9688 31.2656 17.9688 37.5V42.1875H48.4375V37.5C48.4375 31.2656 38.2881 28.125 33.2031 28.125Z" fill="#4E77F4"/>
<path d="M33.2031 25C37.9493 25 41.7969 21.1524 41.7969 16.4062C41.7969 11.6601 37.9493 7.8125 33.2031 7.8125C28.4569 7.8125 24.6094 11.6601 24.6094 16.4062C24.6094 21.1524 28.4569 25 33.2031 25Z" fill="#4E77F4"/>
</svg>
