<svg width="32" height="35" viewBox="0 0 32 42" fill="none" xmlns="http://www.w3.org/2000/svg">
<path fill-rule="evenodd" clip-rule="evenodd" d="M16.2857 40.1905L17.7881 38.4976C19.4929 36.5452 21.0262 34.6929 22.3905 32.931L23.5167 31.4452C28.219 25.1095 30.5714 20.081 30.5714 16.3643C30.5714 8.43095 24.1762 2 16.2857 2C8.39524 2 2 8.43095 2 16.3643C2 20.081 4.35238 25.1095 9.05476 31.4452L10.181 32.931C12.1272 35.4247 14.1635 37.8446 16.2857 40.1905Z" stroke="#878787" stroke-width="2.38095" stroke-linecap="round" stroke-linejoin="round"/>
<path d="M16.2854 22.2383C19.5728 22.2383 22.2378 19.5733 22.2378 16.2859C22.2378 12.9985 19.5728 10.3335 16.2854 10.3335C12.998 10.3335 10.333 12.9985 10.333 16.2859C10.333 19.5733 12.998 22.2383 16.2854 22.2383Z" stroke="#878787" stroke-width="2.38095" stroke-linecap="round" stroke-linejoin="round"/>
</svg>
