<svg width="21" height="21" viewBox="0 0 21 21" fill="none" xmlns="http://www.w3.org/2000/svg">
<path d="M14.5833 8.33317C14.5833 9.43824 14.1443 10.498 13.3629 11.2794C12.5815 12.0609 11.5217 12.4998 10.4167 12.4998C9.3116 12.4998 8.25179 12.0609 7.47039 11.2794C6.68899 10.498 6.25 9.43824 6.25 8.33317C6.25 7.2281 6.68899 6.16829 7.47039 5.38689C8.25179 4.60549 9.3116 4.1665 10.4167 4.1665C11.5217 4.1665 12.5815 4.60549 13.3629 5.38689C14.1443 6.16829 14.5833 7.2281 14.5833 8.33317Z" fill="white"/>
<path fill-rule="evenodd" clip-rule="evenodd" d="M9.99167 20.825C4.43594 20.6021 0 16.0271 0 10.4167C0 4.66354 4.66354 0 10.4167 0C16.1698 0 20.8333 4.66354 20.8333 10.4167C20.8333 16.1698 16.1698 20.8333 10.4167 20.8333C10.3691 20.8336 10.3215 20.8336 10.274 20.8333C10.1797 20.8333 10.0854 20.8302 9.99167 20.825ZM3.73229 16.9896C3.65441 16.7659 3.6279 16.5276 3.65473 16.2923C3.68156 16.057 3.76104 15.8307 3.88728 15.6303C4.01352 15.43 4.18326 15.2606 4.38392 15.1348C4.58457 15.009 4.81099 14.93 5.04635 14.9036C9.10677 14.4542 11.7516 14.4948 15.7922 14.913C16.0279 14.9376 16.2548 15.0156 16.4558 15.1411C16.6568 15.2666 16.8265 15.4363 16.9519 15.6373C17.0774 15.8384 17.1554 16.0653 17.1798 16.301C17.2043 16.5367 17.1747 16.7749 17.0932 16.9974C18.825 15.2453 19.7948 12.8802 19.7917 10.4167C19.7917 5.23906 15.5943 1.04167 10.4167 1.04167C5.23906 1.04167 1.04167 5.23906 1.04167 10.4167C1.04167 12.9771 2.06823 15.2979 3.73229 16.9896Z" fill="white"/>
</svg>
