<svg width="109" height="145" viewBox="0 0 109 145" fill="none" xmlns="http://www.w3.org/2000/svg">
<path d="M57.0459 67.2209C48.3552 67.2255 39.9799 70.8156 33.564 77.2865C27.1482 83.7573 23.1552 92.6416 22.3688 102.195H22.0077V110.046H22.4598C23.4317 119.422 27.493 128.076 33.8706 134.361C40.2481 140.645 48.4966 144.122 57.0459 144.129C66.2851 144.129 75.146 140.077 81.6791 132.866C88.2123 125.654 91.8826 115.874 91.8826 105.675C91.8826 100.625 90.9816 95.6247 89.2309 90.9592C87.4802 86.2938 84.9141 82.0546 81.6792 78.4838C78.4443 74.913 74.604 72.0805 70.3774 70.148C66.1508 68.2155 61.6207 67.2209 57.0459 67.2209ZM57.0459 74.7058C64.4868 74.7059 71.6229 77.9687 76.8843 83.7766C82.1458 89.5844 85.1016 97.4615 85.1015 105.675C85.1015 113.888 82.1456 121.765 76.8842 127.573C71.6227 133.381 64.4867 136.644 57.0459 136.644C50.2945 136.639 43.7713 133.946 38.6731 129.061C33.5749 124.175 30.2437 117.424 29.2907 110.046H29.4249V102.195H29.19C29.9642 94.6367 33.2316 87.6571 38.369 82.5872C43.5065 77.5173 50.1547 74.7119 57.0459 74.7058Z" fill="#E9723D"/>
<path opacity="0.985737" d="M70.3804 123.53H57.3062V131.423H70.3804V123.53Z" fill="#F4D75E"/>
<path opacity="0.985737" d="M70.4284 131.026L70.2737 80.3361L63.2396 80.16L63.3943 130.85L70.4284 131.026Z" fill="#F4D75E"/>
<path opacity="0.985737" d="M76.2501 80.1602H57.418V88.0528H76.2501V80.1602Z" fill="#F4D75E"/>
<path opacity="0.985737" d="M70.6147 131.026L102.074 85.8055L95.9258 80.1288L64.4662 125.35L70.6147 131.026Z" fill="#F4D75E"/>
<path opacity="0.985737" d="M109 80.1288H95.9258V88.0215H109V80.1288Z" fill="#F4D75E"/>
<path opacity="0.985737" d="M103.115 130.995L102.96 80.3049L95.9257 80.1288L96.0804 130.819L103.115 130.995Z" fill="#F4D75E"/>
<path opacity="0.985737" d="M108.936 122.962H90.1042V130.855H108.936V122.962Z" fill="#F4D75E"/>
<path d="M51.1651 3.79244C51.1651 3.79244 47.4916 9.05017 47.8517 12.0063C48.2695 15.4362 53.8879 20.4682 53.8879 20.4682C53.8879 20.4682 59.9817 17.2426 62.1683 14.6413C64.1392 12.2966 63.1493 5.03405 63.1493 5.03405C63.1493 5.03405 61.8214 9.88047 59.9558 11.6873C58.9986 12.6144 57.0307 12.8758 57.0307 12.8758C57.0307 12.8758 56.9717 9.91177 58.656 6.83419C60.3416 3.75424 66.8217 0.540446 66.8217 0.540446C66.8217 0.540446 58.4575 1.93994 55.1581 5.58164C54.1362 6.70964 51.4 9.27043 51.4 9.27043L51.1651 3.79244Z" fill="#E9723D"/>
<path d="M77.7761 43.179C81.3149 43.2797 84.2188 40.4733 84.2621 36.9106C84.3054 33.3479 81.4717 30.3781 77.9328 30.2774C74.394 30.1766 71.4901 32.9831 71.4468 36.5458C71.4035 40.1085 74.2372 43.0783 77.7761 43.179Z" fill="#0B7FAB"/>
<path d="M70.9657 45.297C74.1554 43.696 78.8986 46.0296 80.5736 49.3109C82.5306 53.1447 78.0244 60.3071 78.181 64.6128C78.3779 70.0303 79.0133 77.261 79.0133 77.261C79.0133 77.261 68.4428 65.412 61.69 69.8118C49.9716 77.447 63.7545 111.142 63.7545 111.142C63.7545 111.142 42.271 73.8976 55.6941 61.0612C59.9578 56.9838 67.9674 60.7894 67.9674 60.7894C67.9674 60.7894 66.7369 47.4196 70.9657 45.297Z" fill="#0B7FAB"/>
<path d="M54.7132 21.1976C54.7132 21.1976 56.1388 34.4208 60.3061 39.0113C63.6824 42.7305 74.078 44.7407 74.078 44.7407C74.1405 44.5537 69.2928 49.779 68.3825 52.5063C68.3825 52.5063 59.1966 46.6628 56.0635 41.1431C51.3895 32.9089 54.7132 21.1976 54.7132 21.1976Z" fill="#0B7FAB"/>
<path opacity="0.985737" d="M29.5514 80.9308H0L0 88.0716H29.5514V80.9308Z" fill="#F4D75E"/>
<path opacity="0.985737" d="M31.1833 124.438H0L0 131.578H31.1833V124.438Z" fill="#F4D75E"/>
<path opacity="0.985737" d="M9.64783 80.9507V131.577H17.095V80.9507H9.64783Z" fill="#F4D75E"/>
<path d="M28.4235 80.8278C26.2592 80.8278 24.1162 81.2001 22.1167 81.9235C20.1172 82.6469 18.3004 83.7073 16.77 85.044C15.2396 86.3807 14.0257 87.9676 13.1975 89.7141C12.3693 91.4606 11.943 93.3325 11.943 95.223C11.9451 95.3055 11.948 95.3881 11.9517 95.4706C11.9846 94.3416 12.4559 93.231 13.3312 92.2194C14.2066 91.2079 15.464 90.3209 17.0121 89.6228V88.0837H22.821C22.8529 88.0773 22.8849 88.071 22.9169 88.0647H31.0647C33.4946 88.584 35.6003 89.5495 37.0914 90.8282C38.5824 92.1069 39.3856 93.6357 39.39 95.204C39.3761 96.7099 38.626 98.1792 37.2353 99.4244C35.8446 100.67 33.8764 101.634 31.5817 102.195H29.425V102.232V103.02V109.591C33.6145 109.368 37.5488 107.757 40.4252 105.087C43.3016 102.417 44.9034 98.8892 44.9036 95.223C44.9036 91.4051 43.1674 87.7437 40.0767 85.0441C36.9861 82.3445 32.7943 80.8278 28.4235 80.8278H28.4235ZM11.9677 95.9336C12.1038 98.1324 12.8155 100.275 14.0481 102.195H12.3407V103.182H14.7153C16.5016 105.529 19.0373 107.366 22.0077 108.466V103.02V102.232V102.195H18.7241H17.0121V101.532C15.5219 100.86 14.3005 100.013 13.4303 99.0468C12.5601 98.0809 12.0614 97.0194 11.9677 95.9336Z" fill="#F4D75E"/>
<path d="M30.8186 102.966C30.3533 102.967 29.8884 102.985 29.4249 103.02V109.406V110.046C29.4744 110.045 29.5239 110.045 29.5734 110.044C31.0014 110.044 32.4155 110.232 33.7348 110.597C35.0542 110.962 36.2529 111.497 37.2627 112.172C38.2725 112.846 39.0734 113.647 39.6199 114.528C40.1664 115.41 40.4476 116.354 40.4476 117.308C40.4459 118.83 39.7286 120.314 38.3968 121.549C37.0651 122.784 35.1862 123.708 33.0255 124.191H26.1259H0.15059H0.0711117H0L0 124.486H0.0711117L0.0711117 127.274H19.1461C20.6688 128.627 22.4849 129.702 24.4888 130.438C26.4926 131.173 28.6443 131.554 30.8186 131.558C32.9726 131.558 35.1056 131.189 37.0957 130.47C39.0858 129.752 40.8941 128.699 42.4172 127.371C43.9404 126.043 45.1486 124.467 45.9729 122.733C46.7972 120.998 47.2214 119.139 47.2213 117.262C47.2212 113.47 45.4931 109.834 42.417 107.153C39.3408 104.472 35.1688 102.966 30.8186 102.966ZM22.0077 105.207C19.7989 106.433 17.959 108.102 16.6419 110.075C17.1632 110.063 17.6857 110.057 18.2084 110.056C18.75 110.056 19.2913 110.062 19.8315 110.075H22.0077V109.406V105.207Z" fill="#F4D75E"/>
<path d="M22.4592 102.195H22.0077V110.048H22.4592V102.195Z" fill="#F4D75E"/>
<path opacity="0.985737" d="M10.5116 102.966V109.877H22.0076V102.966H10.5116ZM29.4249 102.966V109.877H30.8185V102.966H29.4249Z" fill="#F4D75E"/>
<path d="M29.4243 102.195H29.2102V110.048H29.4243V102.195Z" fill="#F4D75E"/>
</svg>
