<svg width="34" height="28" viewBox="0 0 34 28" fill="none" xmlns="http://www.w3.org/2000/svg">
<path d="M3.66634 27.3332C2.74967 27.3332 1.96523 27.0071 1.31301 26.3548C0.660786 25.7026 0.334119 24.9176 0.333008 23.9998V3.99984C0.333008 3.08317 0.659675 2.29873 1.31301 1.6465C1.96634 0.994281 2.75079 0.667615 3.66634 0.666504H30.333C31.2497 0.666504 32.0347 0.99317 32.688 1.6465C33.3413 2.29984 33.6675 3.08428 33.6663 3.99984V23.9998C33.6663 24.9165 33.3402 25.7015 32.688 26.3548C32.0358 27.0082 31.2508 27.3343 30.333 27.3332H3.66634ZM16.9997 15.6665L3.66634 7.33317V23.9998H30.333V7.33317L16.9997 15.6665ZM16.9997 12.3332L30.333 3.99984H3.66634L16.9997 12.3332ZM3.66634 7.33317V3.99984V23.9998V7.33317Z" fill="#4E77F4"/>
</svg>
