<svg width="50" height="50" viewBox="0 0 50 50" fill="none" xmlns="http://www.w3.org/2000/svg">
<g clip-path="url(#clip0_105_22)">
<path d="M32.673 0H17.3246C3.31836 0 -0.00195312 3.32031 -0.00195312 17.3266V32.675C-0.00195312 46.6813 3.31836 50.0016 17.3246 50.0016H32.673C46.6793 50.0016 49.9996 46.6813 49.9996 32.675V17.3266C49.9996 3.32031 46.6465 0 32.673 0ZM40.3637 35.6687H36.734C35.359 35.6687 34.9355 34.5781 32.4621 32.0719C30.3137 29.9891 29.3621 29.7125 28.8324 29.7125C28.084 29.7125 27.8715 29.9234 27.8715 30.95V34.2297C27.8715 35.1094 27.5949 35.6375 25.2668 35.6375C21.4168 35.6375 17.1449 33.3094 14.1496 28.9719C9.63242 22.6156 8.39648 17.8547 8.39648 16.8703C8.39648 16.3406 8.60742 15.8453 9.62461 15.8453H13.2621C14.1824 15.8453 14.5324 16.2687 14.8902 17.2531C16.6887 22.4453 19.684 26.9937 20.9199 26.9937C21.3762 26.9937 21.5871 26.7828 21.5871 25.6187V20.2562C21.448 17.7828 20.1465 17.5703 20.1465 16.6922C20.1465 16.2687 20.4965 15.8453 21.0574 15.8453H26.7777C27.5512 15.8453 27.8355 16.2687 27.8355 17.1797V24.4141C27.8355 25.1953 28.1855 25.4719 28.3965 25.4719C28.8527 25.4719 29.2434 25.1953 30.0887 24.3484C32.7012 21.4188 34.573 16.9016 34.573 16.9016C34.8168 16.3719 35.2402 15.8766 36.1605 15.8766H39.798C40.8887 15.8766 41.1324 16.4375 40.8887 17.2188C40.4324 19.3344 35.9809 25.6172 35.9809 25.6172C35.598 26.2516 35.4512 26.5281 35.9809 27.2359C36.3715 27.7656 37.6418 28.8641 38.4871 29.8484C40.0418 31.6141 41.2371 33.0953 41.5559 34.1203C41.9137 35.1375 41.3855 35.6672 40.359 35.6672L40.3637 35.6687Z" fill="#4E77F4"/>
</g>
<defs>
<clipPath id="clip0_105_22">
<rect width="50" height="50" fill="white"/>
</clipPath>
</defs>
</svg>
