<svg width="50" height="50" viewBox="0 0 50 50" fill="none" xmlns="http://www.w3.org/2000/svg">
<path d="M13.0208 25C12.6064 25 12.2089 25.1646 11.9159 25.4576C11.6229 25.7507 11.4583 26.1481 11.4583 26.5625C11.4583 26.9769 11.6229 27.3743 11.9159 27.6673C12.2089 27.9604 12.6064 28.125 13.0208 28.125H14.0624C14.4768 28.125 14.8742 27.9604 15.1673 27.6673C15.4603 27.3743 15.6249 26.9769 15.6249 26.5625C15.6249 26.1481 15.4603 25.7507 15.1673 25.4576C14.8742 25.1646 14.4768 25 14.0624 25H13.0208ZM11.4583 19.2708C11.4583 18.8564 11.6229 18.459 11.9159 18.166C12.2089 17.8729 12.6064 17.7083 13.0208 17.7083H14.0624C14.4768 17.7083 14.8742 17.8729 15.1673 18.166C15.4603 18.459 15.6249 18.8564 15.6249 19.2708C15.6249 19.6852 15.4603 20.0827 15.1673 20.3757C14.8742 20.6687 14.4768 20.8333 14.0624 20.8333H13.0208C12.6064 20.8333 12.2089 20.6687 11.9159 20.3757C11.6229 20.0827 11.4583 19.6852 11.4583 19.2708ZM13.0208 10.4167C12.6064 10.4167 12.2089 10.5813 11.9159 10.8743C11.6229 11.1673 11.4583 11.5648 11.4583 11.9792C11.4583 12.3936 11.6229 12.791 11.9159 13.084C12.2089 13.377 12.6064 13.5417 13.0208 13.5417H14.0624C14.4768 13.5417 14.8742 13.377 15.1673 13.084C15.4603 12.791 15.6249 12.3936 15.6249 11.9792C15.6249 11.5648 15.4603 11.1673 15.1673 10.8743C14.8742 10.5813 14.4768 10.4167 14.0624 10.4167H13.0208ZM18.7499 26.5625C18.7499 26.1481 18.9145 25.7507 19.2076 25.4576C19.5006 25.1646 19.898 25 20.3124 25H21.3541C21.7685 25 22.1659 25.1646 22.4589 25.4576C22.752 25.7507 22.9166 26.1481 22.9166 26.5625C22.9166 26.9769 22.752 27.3743 22.4589 27.6673C22.1659 27.9604 21.7685 28.125 21.3541 28.125H20.3124C19.898 28.125 19.5006 27.9604 19.2076 27.6673C18.9145 27.3743 18.7499 26.9769 18.7499 26.5625ZM20.3124 17.7083C19.898 17.7083 19.5006 17.8729 19.2076 18.166C18.9145 18.459 18.7499 18.8564 18.7499 19.2708C18.7499 19.6852 18.9145 20.0827 19.2076 20.3757C19.5006 20.6687 19.898 20.8333 20.3124 20.8333H21.3541C21.7685 20.8333 22.1659 20.6687 22.4589 20.3757C22.752 20.0827 22.9166 19.6852 22.9166 19.2708C22.9166 18.8564 22.752 18.459 22.4589 18.166C22.1659 17.8729 21.7685 17.7083 21.3541 17.7083H20.3124ZM18.7499 11.9792C18.7499 11.5648 18.9145 11.1673 19.2076 10.8743C19.5006 10.5813 19.898 10.4167 20.3124 10.4167H21.3541C21.7685 10.4167 22.1659 10.5813 22.4589 10.8743C22.752 11.1673 22.9166 11.5648 22.9166 11.9792C22.9166 12.3936 22.752 12.791 22.4589 13.084C22.1659 13.377 21.7685 13.5417 21.3541 13.5417H20.3124C19.898 13.5417 19.5006 13.377 19.2076 13.084C18.9145 12.791 18.7499 12.3936 18.7499 11.9792ZM27.6041 25C27.1897 25 26.7923 25.1646 26.4992 25.4576C26.2062 25.7507 26.0416 26.1481 26.0416 26.5625C26.0416 26.9769 26.2062 27.3743 26.4992 27.6673C26.7923 27.9604 27.1897 28.125 27.6041 28.125H28.6458C29.0602 28.125 29.4576 27.9604 29.7506 27.6673C30.0436 27.3743 30.2083 26.9769 30.2083 26.5625C30.2083 26.1481 30.0436 25.7507 29.7506 25.4576C29.4576 25.1646 29.0602 25 28.6458 25H27.6041ZM26.0416 19.2708C26.0416 18.8564 26.2062 18.459 26.4992 18.166C26.7923 17.8729 27.1897 17.7083 27.6041 17.7083H28.6458C29.0602 17.7083 29.4576 17.8729 29.7506 18.166C30.0436 18.459 30.2083 18.8564 30.2083 19.2708C30.2083 19.6852 30.0436 20.0827 29.7506 20.3757C29.4576 20.6687 29.0602 20.8333 28.6458 20.8333H27.6041C27.1897 20.8333 26.7923 20.6687 26.4992 20.3757C26.2062 20.0827 26.0416 19.6852 26.0416 19.2708ZM27.6041 10.4167C27.1897 10.4167 26.7923 10.5813 26.4992 10.8743C26.2062 11.1673 26.0416 11.5648 26.0416 11.9792C26.0416 12.3936 26.2062 12.791 26.4992 13.084C26.7923 13.377 27.1897 13.5417 27.6041 13.5417H28.6458C29.0602 13.5417 29.4576 13.377 29.7506 13.084C30.0436 12.791 30.2083 12.3936 30.2083 11.9792C30.2083 11.5648 30.0436 11.1673 29.7506 10.8743C29.4576 10.5813 29.0602 10.4167 28.6458 10.4167H27.6041Z" fill="#878787"/>
<path d="M4.16675 41.6667V6.25001C4.16675 5.14494 4.60573 4.08513 5.38714 3.30373C6.16854 2.52233 7.22835 2.08334 8.33341 2.08334H33.3334C34.4385 2.08334 35.4983 2.52233 36.2797 3.30373C37.0611 4.08513 37.5001 5.14494 37.5001 6.25001V41.6667C37.5001 42.0271 37.4542 42.375 37.3688 42.7083H41.6667C41.943 42.7083 42.208 42.5986 42.4033 42.4032C42.5987 42.2079 42.7084 41.9429 42.7084 41.6667V25C42.7084 24.8383 42.6708 24.6788 42.5984 24.5342C42.5261 24.3895 42.4211 24.2637 42.2917 24.1667L41.2501 23.3854C40.9186 23.1368 40.6994 22.7666 40.6408 22.3564C40.5822 21.9462 40.6889 21.5294 40.9376 21.1979C41.1862 20.8664 41.5564 20.6472 41.9666 20.5886C42.3768 20.53 42.7936 20.6368 43.1251 20.8854L44.1667 21.6667C45.2167 22.4542 45.8334 23.6875 45.8334 25V41.6667C45.8334 42.7717 45.3944 43.8316 44.613 44.613C43.8316 45.3944 42.7718 45.8333 41.6667 45.8333H34.2459C34.1296 45.8335 34.0136 45.8209 33.9001 45.7958C33.7147 45.8208 33.5251 45.8333 33.3334 45.8333H25.5209C25.1065 45.8333 24.7091 45.6687 24.4161 45.3757C24.123 45.0827 23.9584 44.6852 23.9584 44.2708V39.5833H17.7084V44.2708C17.7084 44.6852 17.5438 45.0827 17.2508 45.3757C16.9577 45.6687 16.5603 45.8333 16.1459 45.8333H8.33341C7.22835 45.8333 6.16854 45.3944 5.38714 44.613C4.60573 43.8316 4.16675 42.7717 4.16675 41.6667ZM8.33341 42.7083H14.5834V38.0208C14.5834 37.6064 14.748 37.209 15.0411 36.916C15.3341 36.623 15.7315 36.4583 16.1459 36.4583H25.5209C25.9353 36.4583 26.3327 36.623 26.6258 36.916C26.9188 37.209 27.0834 37.6064 27.0834 38.0208V42.7083H33.3334C33.6097 42.7083 33.8746 42.5986 34.07 42.4032C34.2653 42.2079 34.3751 41.9429 34.3751 41.6667V6.25001C34.3751 5.97374 34.2653 5.70879 34.07 5.51344C33.8746 5.31809 33.6097 5.20834 33.3334 5.20834H8.33341C8.05715 5.20834 7.7922 5.31809 7.59685 5.51344C7.40149 5.70879 7.29175 5.97374 7.29175 6.25001V41.6667C7.29175 41.9429 7.40149 42.2079 7.59685 42.4032C7.7922 42.5986 8.05715 42.7083 8.33341 42.7083Z" fill="#878787"/>
</svg>
