<svg width="50" height="50" viewBox="0 0 50 50" fill="none" xmlns="http://www.w3.org/2000/svg">
<path d="M32.8125 3.125C30.6166 3.1245 28.451 3.63838 26.4894 4.62548C24.5279 5.61258 22.8248 7.04544 21.5167 8.80924C20.2085 10.573 19.3318 12.6187 18.9566 14.7824C18.5814 16.9461 18.7183 19.1675 19.3562 21.2688L3.125 37.5V46.875H12.5L28.7312 30.6437C30.6655 31.2309 32.7035 31.3941 34.7065 31.1223C36.7096 30.8505 38.6304 30.1501 40.3383 29.0688C42.0461 27.9875 43.5008 26.5507 44.6031 24.8564C45.7055 23.1621 46.4296 21.25 46.7261 19.2505C47.0227 17.251 46.8846 15.2111 46.3215 13.2698C45.7584 11.3284 44.7833 9.5313 43.4628 8.00088C42.1423 6.47045 40.5074 5.24269 38.6695 4.40127C36.8316 3.55984 34.8339 3.12453 32.8125 3.125ZM32.8125 28.125C31.7367 28.1244 30.6669 27.9654 29.6375 27.6531L27.8453 27.1094L26.5219 28.4328L21.5516 33.4031L19.3969 31.25L17.1875 33.4594L19.3422 35.6141L16.8641 38.0922L14.7094 35.9375L12.5 38.1469L14.6547 40.3016L11.2062 43.75H6.25V38.7937L21.5656 23.4781L22.8906 22.1547L22.3469 20.3625C21.679 18.1609 21.7224 15.8048 22.4709 13.6293C23.2193 11.4538 24.6347 9.56973 26.5157 8.24504C28.3967 6.92035 30.6475 6.22253 32.948 6.25083C35.2484 6.27913 37.4814 7.03212 39.3292 8.40268C41.1771 9.77325 42.5457 11.6916 43.2404 13.8848C43.9351 16.0781 43.9205 18.4346 43.1987 20.619C42.4769 22.8035 41.0846 24.7048 39.2199 26.0523C37.3553 27.3999 35.1131 28.1252 32.8125 28.125Z" fill="#4E77F4"/>
<path d="M34.375 18.75C36.1009 18.75 37.5 17.3509 37.5 15.625C37.5 13.8991 36.1009 12.5 34.375 12.5C32.6491 12.5 31.25 13.8991 31.25 15.625C31.25 17.3509 32.6491 18.75 34.375 18.75Z" fill="#4E77F4"/>
</svg>
