<svg width="34" height="29" viewBox="0 0 34 29" fill="none" xmlns="http://www.w3.org/2000/svg">
<path fill-rule="evenodd" clip-rule="evenodd" d="M18.6663 16.6667C20.4345 16.6667 22.1301 17.369 23.3804 18.6193C24.6306 19.8695 25.333 21.5652 25.333 23.3333V26.6667C25.333 27.1087 25.1574 27.5326 24.8449 27.8452C24.5323 28.1577 24.1084 28.3333 23.6663 28.3333C23.2243 28.3333 22.8004 28.1577 22.4878 27.8452C22.1753 27.5326 21.9997 27.1087 21.9997 26.6667V23.3333C21.9997 22.4493 21.6485 21.6014 21.0234 20.9763C20.3982 20.3512 19.5504 20 18.6663 20H6.99967C6.11562 20 5.26777 20.3512 4.64265 20.9763C4.01753 21.6014 3.66634 22.4493 3.66634 23.3333V26.6667C3.66634 27.1087 3.49075 27.5326 3.17819 27.8452C2.86563 28.1577 2.4417 28.3333 1.99967 28.3333C1.55765 28.3333 1.13372 28.1577 0.821163 27.8452C0.508602 27.5326 0.333008 27.1087 0.333008 26.6667V23.3333C0.333008 21.5652 1.03539 19.8695 2.28563 18.6193C3.53587 17.369 5.23156 16.6667 6.99967 16.6667H18.6663ZM28.6663 16.6667C29.9924 16.6667 31.2642 17.1934 32.2019 18.1311C33.1396 19.0688 33.6663 20.3406 33.6663 21.6667V25C33.6663 25.442 33.4907 25.866 33.1782 26.1785C32.8656 26.4911 32.4417 26.6667 31.9997 26.6667C31.5576 26.6667 31.1337 26.4911 30.8212 26.1785C30.5086 25.866 30.333 25.442 30.333 25V21.6667C30.333 21.2246 30.1574 20.8007 29.8449 20.4882C29.5323 20.1756 29.1084 20 28.6663 20H26.3063C25.7285 18.6803 24.8198 17.5321 23.668 16.6667H28.6663ZM12.833 0C14.8221 0 16.7298 0.790176 18.1363 2.1967C19.5428 3.60322 20.333 5.51088 20.333 7.5C20.333 9.48912 19.5428 11.3968 18.1363 12.8033C16.7298 14.2098 14.8221 15 12.833 15C10.8439 15 8.93623 14.2098 7.52971 12.8033C6.12318 11.3968 5.33301 9.48912 5.33301 7.5C5.33301 5.51088 6.12318 3.60322 7.52971 2.1967C8.93623 0.790176 10.8439 0 12.833 0ZM26.9997 5C28.3258 5 29.5975 5.52678 30.5352 6.46447C31.4729 7.40215 31.9997 8.67392 31.9997 10C31.9997 11.3261 31.4729 12.5979 30.5352 13.5355C29.5975 14.4732 28.3258 15 26.9997 15C25.6736 15 24.4018 14.4732 23.4641 13.5355C22.5265 12.5979 21.9997 11.3261 21.9997 10C21.9997 8.67392 22.5265 7.40215 23.4641 6.46447C24.4018 5.52678 25.6736 5 26.9997 5ZM12.833 3.33333C11.7279 3.33333 10.6681 3.77232 9.88673 4.55372C9.10533 5.33512 8.66634 6.39493 8.66634 7.5C8.66634 8.60507 9.10533 9.66488 9.88673 10.4463C10.6681 11.2277 11.7279 11.6667 12.833 11.6667C13.9381 11.6667 14.9979 11.2277 15.7793 10.4463C16.5607 9.66488 16.9997 8.60507 16.9997 7.5C16.9997 6.39493 16.5607 5.33512 15.7793 4.55372C14.9979 3.77232 13.9381 3.33333 12.833 3.33333ZM26.9997 8.33333C26.5576 8.33333 26.1337 8.50893 25.8212 8.82149C25.5086 9.13405 25.333 9.55797 25.333 10C25.333 10.442 25.5086 10.866 25.8212 11.1785C26.1337 11.4911 26.5576 11.6667 26.9997 11.6667C27.4417 11.6667 27.8656 11.4911 28.1782 11.1785C28.4907 10.866 28.6663 10.442 28.6663 10C28.6663 9.55797 28.4907 9.13405 28.1782 8.82149C27.8656 8.50893 27.4417 8.33333 26.9997 8.33333Z" fill="#888888"/>
</svg>
