<svg width="21" height="21" viewBox="0 0 21 21" fill="none" xmlns="http://www.w3.org/2000/svg">
<path d="M7.60417 20.8333L7.1875 17.5C6.96181 17.4132 6.74931 17.309 6.55 17.1875C6.35069 17.066 6.15521 16.9358 5.96354 16.7969L2.86458 18.099L0 13.151L2.68229 11.1198C2.66493 10.9983 2.65625 10.8812 2.65625 10.7687V10.0656C2.65625 9.95243 2.66493 9.83507 2.68229 9.71354L0 7.68229L2.86458 2.73437L5.96354 4.03646C6.15451 3.89757 6.35417 3.76736 6.5625 3.64583C6.77083 3.52431 6.97917 3.42014 7.1875 3.33333L7.60417 0H13.3333L13.75 3.33333C13.9757 3.42014 14.1885 3.52431 14.3885 3.64583C14.5885 3.76736 14.7837 3.89757 14.974 4.03646L18.0729 2.73437L20.9375 7.68229L18.2552 9.71354C18.2726 9.83507 18.2812 9.95243 18.2812 10.0656V10.7677C18.2812 10.8809 18.2639 10.9983 18.2292 11.1198L20.9115 13.151L18.0469 18.099L14.974 16.7969C14.783 16.9358 14.5833 17.066 14.375 17.1875C14.1667 17.309 13.9583 17.4132 13.75 17.5L13.3333 20.8333H7.60417ZM9.42708 18.75H11.4844L11.849 15.9896C12.3872 15.8507 12.8865 15.6469 13.3469 15.3781C13.8073 15.1094 14.2281 14.7837 14.6094 14.401L17.1875 15.4687L18.2031 13.6979L15.9635 12.0052C16.0503 11.7622 16.1111 11.5062 16.1458 11.2375C16.1806 10.9687 16.1979 10.6951 16.1979 10.4167C16.1979 10.1389 16.1806 9.86562 16.1458 9.59687C16.1111 9.32812 16.0503 9.07188 15.9635 8.82813L18.2031 7.13542L17.1875 5.36458L14.6094 6.45833C14.2274 6.05903 13.8066 5.725 13.3469 5.45625C12.8872 5.1875 12.3878 4.98333 11.849 4.84375L11.5104 2.08333H9.45312L9.08854 4.84375C8.55035 4.98264 8.05139 5.18681 7.59167 5.45625C7.13194 5.72569 6.71076 6.05104 6.32812 6.43229L3.75 5.36458L2.73437 7.13542L4.97396 8.80208C4.88715 9.0625 4.82639 9.32292 4.79167 9.58333C4.75694 9.84375 4.73958 10.1215 4.73958 10.4167C4.73958 10.6944 4.75694 10.9635 4.79167 11.224C4.82639 11.4844 4.88715 11.7448 4.97396 12.0052L2.73437 13.6979L3.75 15.4687L6.32812 14.375C6.71007 14.7743 7.13125 15.1087 7.59167 15.3781C8.05208 15.6476 8.55104 15.8514 9.08854 15.9896L9.42708 18.75ZM10.5208 14.0625C11.5278 14.0625 12.3872 13.7066 13.099 12.9948C13.8108 12.283 14.1667 11.4236 14.1667 10.4167C14.1667 9.40972 13.8108 8.55035 13.099 7.83854C12.3872 7.12674 11.5278 6.77083 10.5208 6.77083C9.49653 6.77083 8.63264 7.12674 7.92917 7.83854C7.22569 8.55035 6.87431 9.40972 6.875 10.4167C6.875 11.4236 7.22674 12.283 7.93021 12.9948C8.63368 13.7066 9.49722 14.0625 10.5208 14.0625Z" fill="white"/>
</svg>
